<?xml version="1.0" encoding="UTF-8"?>
<svg id="V2" xmlns="http://www.w3.org/2000/svg" viewBox="0 0 2549.952 1781.063">
  <defs>
    <style>
      .cls-1 {
        fill: #c4a46a;
      }

      .cls-2 {
        fill: #efe3d7;
      }

      .cls-3 {
        fill: #36394c;
      }
    </style>
  </defs>
  <rect class="cls-2" x="1266.939" y="508.283" width="500" height="500"/>
  <g>
    <path class="cls-3" d="M1397.287,589.852v67.4c0,3.334.2,5.85.6,7.55.4,1.7,1.25,2.85,2.55,3.45,1.3.6,3.216.967,5.75,1.1v3.5h-27.6v-3.5c2.666-.133,4.666-.5,6-1.1,1.333-.6,2.232-1.7,2.7-3.3.466-1.6.7-3.933.7-7v-43.1c0-3.6-.05-6.616-.15-9.05-.1-2.433-.25-4.083-.45-4.95-.334-1.533-1.117-2.565-2.35-3.1-1.234-.533-3.45-.8-6.65-.8v-3.4l18.9-3.7Z"/>
    <path class="cls-3" d="M1429.386,645.252l14.4-6.3v-4.1c0-4.2-.85-7.283-2.55-9.25-1.7-1.966-4.384-2.95-8.05-2.95-2.134,0-3.684.435-4.65,1.3-.967.867-1.884,2.6-2.75,5.2-.734,1.867-1.45,3.135-2.15,3.8-.7.667-1.717,1-3.05,1-3.334,0-5-1.666-5-5,0-3.2,1.7-5.683,5.1-7.45,3.4-1.766,8.233-2.65,14.5-2.65,6.733,0,11.483,1.167,14.25,3.5,2.766,2.334,4.15,6.367,4.15,12.1v22.4c0,4.134.4,7.067,1.2,8.8.8,1.734,2.066,2.6,3.8,2.6.666,0,1.45-.15,2.35-.45.9-.3,1.583-.883,2.05-1.75l1.4,2.4c-.8,1.534-2.267,2.817-4.4,3.85-2.134,1.033-4.367,1.55-6.7,1.55-2.867,0-5.034-.935-6.5-2.8-1.467-1.866-2.2-4.5-2.2-7.9h-.5c-1.8,3.268-4.234,5.85-7.3,7.75-3.067,1.9-6.467,2.85-10.2,2.85-4.067,0-7.317-1.083-9.75-3.25-2.435-2.166-3.65-5.05-3.65-8.65,0-3.133,1.166-6.016,3.5-8.65,2.333-2.633,6.566-5.283,12.7-7.95ZM1443.786,651.151v-7.9c-7.667,2.867-13,5.685-16,8.45-3,2.767-4.5,5.584-4.5,8.45,0,2.268.733,4.1,2.2,5.5,1.465,1.4,3.333,2.1,5.6,2.1,2.4,0,4.565-.75,6.5-2.25,1.933-1.5,3.45-3.516,4.55-6.05,1.1-2.533,1.65-5.3,1.65-8.3Z"/>
    <path class="cls-3" d="M1396.638,710.349v37.1h.4c4.133-5.4,9.465-8.1,16-8.1,4.8,0,9.133,1.217,13,3.65,3.866,2.435,6.916,5.717,9.15,9.85,2.233,4.134,3.35,8.8,3.35,14s-1.134,9.885-3.4,14.05c-2.268,4.168-5.35,7.468-9.25,9.9-3.9,2.435-8.285,3.65-13.15,3.65-3.734,0-7.267-.7-10.6-2.101-3.334-1.399-6.067-3.3-8.2-5.7l-4.7,6.7h-2.2v-60.399c0-6.733-.435-11.033-1.3-12.9-.267-.666-.617-1.166-1.05-1.5-.435-.333-1.15-.633-2.15-.9-1-.266-2.567-.533-4.7-.8v-2.5l18.8-4ZM1396.837,763.549v8.9c0,3.334.633,6.3,1.9,8.899,1.266,2.601,3.016,4.635,5.25,6.101,2.233,1.467,4.783,2.199,7.65,2.199,3.133,0,5.865-.933,8.2-2.8,2.333-1.865,4.15-4.5,5.45-7.899,1.3-3.4,1.95-7.333,1.95-11.801,0-4.532-.684-8.532-2.05-12-1.367-3.465-3.25-6.183-5.65-8.15-2.4-1.965-5.167-2.95-8.3-2.95-2.667,0-5.084.65-7.25,1.95-2.167,1.3-3.817,3.117-4.95,5.45-1.467,2.934-2.2,6.967-2.2,12.1Z"/>
    <path class="cls-3" d="M1492.437,781.249l3.1,2.8c-5.667,6.867-12.7,10.3-21.1,10.3-5.2,0-9.767-1.133-13.7-3.399-3.934-2.266-7-5.416-9.2-9.45-2.2-4.033-3.3-8.716-3.3-14.05,0-5.466,1.166-10.316,3.5-14.55,2.333-4.232,5.55-7.55,9.65-9.95,4.1-2.4,8.85-3.6,14.25-3.6,6.4,0,11.383,1.75,14.95,5.25,3.565,3.5,5.35,8.517,5.35,15.05,0,.867-.185,1.417-.55,1.65-.367.234-1.217.35-2.55.35h-32.9c-.134.535-.234,1.185-.3,1.95-.067.767-.1,1.617-.1,2.549,0,4.601.732,8.635,2.2,12.101,1.466,3.467,3.533,6.149,6.2,8.05,2.666,1.9,5.766,2.85,9.3,2.85,2.733,0,5.333-.633,7.8-1.899,2.465-1.266,4.933-3.266,7.4-6ZM1460.637,757.049h18.4c2.732,0,4.416-.166,5.05-.5.633-.333.95-1.1.95-2.3,0-3.065-1-5.516-3-7.35-2-1.833-4.667-2.75-8-2.75-7.2,0-11.667,4.3-13.4,12.9Z"/>
    <path class="cls-3" d="M1521.536,710.349v67.4c0,3.334.2,5.85.601,7.55.399,1.7,1.25,2.85,2.55,3.45,1.3.6,3.216.967,5.75,1.1v3.5h-27.6v-3.5c2.666-.133,4.666-.5,6-1.1,1.333-.601,2.232-1.7,2.7-3.3.465-1.601.7-3.934.7-7v-43.1c0-3.6-.05-6.616-.149-9.05-.101-2.433-.25-4.083-.45-4.95-.334-1.533-1.117-2.565-2.35-3.1-1.234-.533-3.45-.8-6.65-.8v-3.4l18.899-3.7Z"/>
    <path class="cls-3" d="M1554.036,710.349v67.4c0,3.334.2,5.85.6,7.55.4,1.7,1.25,2.85,2.55,3.45,1.301.6,3.216.967,5.75,1.1v3.5h-27.6v-3.5c2.666-.133,4.666-.5,6-1.1,1.333-.601,2.232-1.7,2.7-3.3.466-1.601.7-3.934.7-7v-43.1c0-3.6-.051-6.616-.15-9.05-.1-2.433-.25-4.083-.45-4.95-.334-1.533-1.117-2.565-2.35-3.1-1.234-.533-3.45-.8-6.65-.8v-3.4l18.9-3.7Z"/>
    <path class="cls-3" d="M1586.136,765.749l14.399-6.3v-4.1c0-4.2-.85-7.283-2.55-9.25-1.7-1.966-4.384-2.95-8.05-2.95-2.135,0-3.685.435-4.65,1.3-.967.867-1.884,2.6-2.75,5.2-.734,1.867-1.449,3.135-2.149,3.8-.7.667-1.718,1-3.05,1-3.335,0-5-1.666-5-5,0-3.2,1.699-5.683,5.1-7.45,3.4-1.766,8.232-2.65,14.5-2.65,6.732,0,11.482,1.167,14.25,3.5,2.766,2.334,4.15,6.367,4.15,12.1v22.399c0,4.135.399,7.067,1.199,8.8.801,1.734,2.066,2.601,3.801,2.601.665,0,1.449-.15,2.35-.45s1.583-.883,2.05-1.75l1.4,2.4c-.8,1.534-2.268,2.816-4.4,3.85-2.134,1.033-4.367,1.55-6.7,1.55-2.867,0-5.034-.935-6.5-2.8-1.467-1.865-2.199-4.5-2.199-7.9h-.5c-1.801,3.268-4.234,5.851-7.301,7.75-3.066,1.9-6.467,2.851-10.199,2.851-4.067,0-7.317-1.083-9.75-3.25-2.435-2.166-3.65-5.05-3.65-8.65,0-3.133,1.166-6.016,3.5-8.649,2.333-2.633,6.565-5.283,12.7-7.95ZM1600.535,771.648v-7.899c-7.667,2.867-13,5.685-16,8.45-3,2.767-4.5,5.584-4.5,8.449,0,2.268.733,4.101,2.2,5.5,1.466,1.4,3.333,2.101,5.601,2.101,2.399,0,4.565-.75,6.5-2.25,1.933-1.5,3.449-3.516,4.55-6.05,1.1-2.533,1.649-5.301,1.649-8.301Z"/>
    <path class="cls-3" d="M1396.987,855.283v12.7c0,3.667.15,6.367.45,8.1.3,1.734,1.033,2.851,2.2,3.351,1.166.5,3.016.85,5.55,1.05v3.5h-26.6v-3.5c2.6-.2,4.5-.55,5.7-1.05,1.2-.5,1.983-1.565,2.35-3.2.366-1.633.55-4.115.55-7.45v-12.8c0-3.8-.05-6.982-.15-9.55-.1-2.565-.284-4.283-.55-5.15-.334-1.732-1-2.833-2-3.3-1-.466-3.035-.7-6.1-.7v-3.5l16.3-3.8,1.3,10h.5c3-3.4,6.15-5.916,9.45-7.55,3.3-1.633,6.95-2.45,10.95-2.45,4.2,0,7.75.867,10.65,2.6,2.9,1.734,4.883,4.168,5.95,7.301h.4c2.466-3.133,5.483-5.566,9.05-7.301,3.566-1.732,7.316-2.6,11.25-2.6,3.133,0,5.983.518,8.55,1.55,2.565,1.034,4.516,2.45,5.85,4.25,1.2,1.534,2.05,3.55,2.55,6.05s.75,5.918.75,10.25v15.9c0,3.667.166,6.35.5,8.05.333,1.7,1.083,2.817,2.25,3.351,1.166.534,3.016.899,5.55,1.1v3.5h-26.6v-3.5c2.533-.133,4.4-.466,5.6-1,1.2-.533,1.983-1.615,2.35-3.25.366-1.633.55-4.115.55-7.45v-12.6c0-7.666-.867-13.033-2.6-16.101-1.734-3.065-4.767-4.6-9.1-4.6-2.867,0-5.6.817-8.2,2.45-2.6,1.634-4.634,3.817-6.1,6.55-.467.867-.817,1.734-1.05,2.6-.234.867-.4,1.918-.5,3.15-.1,1.234-.15,2.917-.15,5.05v12.7c0,3.667.166,6.35.5,8.05.333,1.7,1.083,2.817,2.25,3.351,1.166.534,3.05.899,5.65,1.1v3.5h-26.6v-3.5c2.533-.2,4.4-.55,5.6-1.05,1.2-.5,1.966-1.565,2.3-3.2.333-1.633.5-4.115.5-7.45v-12.6c0-5.2-.367-9.3-1.1-12.3-.734-3-1.935-5.15-3.6-6.45-1.667-1.3-3.935-1.95-6.8-1.95-2.935,0-5.734.817-8.4,2.45-2.667,1.634-4.667,3.817-6,6.55-.467.867-.817,1.734-1.05,2.6-.234.867-.4,1.918-.5,3.15-.1,1.234-.15,2.917-.15,5.05Z"/>
    <path class="cls-3" d="M1531.286,871.883l3.101,2.8c-5.668,6.867-12.7,10.3-21.101,10.3-5.2,0-9.767-1.133-13.7-3.4-3.934-2.266-7-5.415-9.2-9.449-2.2-4.033-3.3-8.716-3.3-14.051,0-5.465,1.166-10.315,3.5-14.55,2.333-4.232,5.55-7.55,9.65-9.95,4.1-2.399,8.85-3.6,14.25-3.6,6.4,0,11.383,1.75,14.95,5.25,3.565,3.5,5.35,8.518,5.35,15.05,0,.867-.185,1.417-.55,1.65-.367.234-1.217.35-2.55.35h-32.9c-.134.534-.234,1.185-.3,1.95-.067.768-.1,1.617-.1,2.55,0,4.601.732,8.635,2.2,12.101,1.466,3.467,3.533,6.149,6.2,8.05,2.666,1.899,5.765,2.85,9.299,2.85,2.733,0,5.333-.633,7.801-1.899,2.465-1.266,4.933-3.266,7.399-6ZM1499.486,847.683h18.4c2.732,0,4.415-.166,5.05-.5.633-.333.95-1.101.95-2.3,0-3.066-1-5.516-3-7.351-2-1.833-4.668-2.75-8-2.75-7.2,0-11.667,4.3-13.4,12.9Z"/>
    <path class="cls-3" d="M1550.086,880.483l-2,3.5h-2.2v-17.2h2.5c2.601,9.4,7.333,14.101,14.2,14.101,2.666,0,4.783-.65,6.351-1.95,1.565-1.3,2.35-3.283,2.35-5.95,0-1.333-.284-2.45-.85-3.35-.567-.9-1.685-1.934-3.351-3.101-1.667-1.165-4.134-2.75-7.399-4.75-3-1.933-5.5-3.665-7.5-5.2-2-1.532-3.5-3.165-4.5-4.899-1-1.733-1.5-3.833-1.5-6.3,0-3.066.665-5.75,2-8.051,1.332-2.3,3.115-4.1,5.35-5.399,2.232-1.3,4.75-1.95,7.55-1.95,1.8,0,3.666.284,5.601.85,1.933.567,3.633,1.317,5.1,2.25l2-2.1h1.9v14.4h-2.601c-1.467-4.066-3.067-6.966-4.8-8.7-1.734-1.733-3.867-2.601-6.4-2.601-2.267,0-4.084.601-5.449,1.801-1.367,1.199-2.051,2.867-2.051,5,0,2.199.783,4,2.351,5.399,1.565,1.4,4.05,3.167,7.45,5.3,3.865,2.4,6.965,4.484,9.3,6.25,2.333,1.768,4.032,3.567,5.1,5.4,1.065,1.834,1.601,4.018,1.601,6.55,0,4.667-1.551,8.367-4.65,11.101-3.1,2.734-7.117,4.1-12.05,4.1-5.2,0-9.667-1.5-13.4-4.5Z"/>
  </g>
  <g>
    <path class="cls-1" d="M1603.073,856.383l14.399-6.301v-4.1c0-4.2-.85-7.283-2.55-9.25-1.7-1.966-4.384-2.95-8.05-2.95-2.135,0-3.685.435-4.65,1.3-.967.867-1.884,2.601-2.75,5.2-.734,1.867-1.449,3.135-2.149,3.8-.7.668-1.718,1-3.05,1-3.335,0-5-1.665-5-5,0-3.199,1.699-5.683,5.1-7.449,3.4-1.766,8.232-2.65,14.5-2.65,6.732,0,11.482,1.167,14.25,3.5,2.766,2.334,4.15,6.367,4.15,12.1v22.4c0,4.135.399,7.067,1.199,8.8.801,1.734,2.066,2.601,3.801,2.601.665,0,1.449-.15,2.35-.45s1.583-.883,2.05-1.75l1.4,2.399c-.8,1.535-2.268,2.817-4.4,3.851-2.134,1.032-4.367,1.55-6.7,1.55-2.867,0-5.034-.935-6.5-2.8-1.467-1.866-2.199-4.5-2.199-7.9h-.5c-1.801,3.268-4.234,5.851-7.301,7.75-3.066,1.9-6.467,2.851-10.199,2.851-4.067,0-7.317-1.083-9.75-3.25-2.435-2.166-3.65-5.051-3.65-8.65,0-3.133,1.166-6.016,3.5-8.65,2.333-2.633,6.565-5.282,12.7-7.949ZM1617.473,862.283v-7.899c-7.667,2.867-13,5.684-16,8.449-3,2.768-4.5,5.585-4.5,8.45,0,2.268.733,4.101,2.2,5.5,1.466,1.4,3.333,2.101,5.601,2.101,2.399,0,4.565-.75,6.5-2.25,1.933-1.5,3.449-3.516,4.55-6.051,1.1-2.532,1.649-5.3,1.649-8.3Z"/>
    <path class="cls-1" d="M1615.054,969.537c-3.13-5.273-.583-8.808,4.24-10.814,4.156-1.729,7.129,1.031,8.715,4.014,2.136,4.02.496,7.291-3.953,9.603-4.06,2.11-6.225-.72-9.002-2.803Z"/>
    <path class="cls-1" d="M1645.37,954.658c1.525,3.244.926,5.557-1.633,7.308-1.498,1.025-2.664.429-3.802-.613-1.4-1.28-3.185-2.419-2.259-4.774,1.467-3.728,4.448-2.78,7.694-1.921Z"/>
    <path class="cls-1" d="M1501.925,620.477c1.045,2.495.634,4.273-1.119,5.619-1.026.788-1.824.33-2.604-.471-.959-.984-2.181-1.86-1.547-3.671,1.005-2.867,3.046-2.137,5.269-1.477Z"/>
    <path class="cls-1" d="M1651.837,744.049c-5.392-39.824-25.9-79.634-59.263-101.376-1.288-.748-5.715-3.52-7.031-4.285-1.792-.97-5.524-2.873-7.298-3.828-5.813-2.713-11.736-5.211-17.868-7.109-9.705-3.025-19.529-5.001-29.719-5.23-6.892-.243-13.867-.122-20.757.297-.823.05-1.536-.553-1.62-1.373l-.019-.185c-.075-.736,7.539-2.031,8.275-2.108,10.86-1.14,14.69-.968,25.6.003,42.864,5.011,82.526,31.679,103.998,69.098,7.181,12.63,11.209,26.801,14.534,40.965,2.979,12.689,1.725,29.968,1.335,40.276-.426,11.255-2.356,36.921-16.331,59.852-3.761,6.172-12.705,16.687-18.519,20.514-3.554,2.339-6.213,3.599-9.681,4.825v-4.301s4.942-1.136,9.527-4.865c22.532-18.323,27.807-79.231,24.837-101.169Z"/>
    <path class="cls-1" d="M1599.418,948.084c25.513-21.047,63.289-74.05,65.827-154.735.887-28.194,2.578-81.941-36.878-125.597-38.009-42.055-89.419-47.009-104.48-46.798l-7.35.615c.957-1.728,2.718-1.769,4.69-1.652,20.415,1.209,30.686,2.074,40.808,4.596,2.661.663,32.257,6.723,62.001,34.665,47.777,44.881,49.551,110.893,50.176,134.172.347,12.928.485,60.112-25.98,111.586-11.147,21.68-23.835,37.94-33.719,48.992-11.213,9.379-22.383,1.38-15.096-5.843Z"/>
  </g>
</svg>