<?xml version="1.0" encoding="UTF-8"?>
<svg id="H3" xmlns="http://www.w3.org/2000/svg" viewBox="0 0 2549.952 1781.063">
  <defs>
    <style>
      .cls-1, .cls-2 {
        fill: #c4a46a;
      }

      .cls-2 {
        stroke: #c4a46a;
        stroke-miterlimit: 10;
      }

      .cls-3 {
        fill: #5b2e34;
      }

      .cls-4 {
        fill: #efe3d7;
      }
    </style>
  </defs>
  <rect class="cls-3" x="873.069" y="386.076" width="1280.291" height="720"/>
  <g>
    <path class="cls-4" d="M1208.55,683.052v67.4c0,3.335.2,5.851.6,7.551.4,1.699,1.25,2.85,2.55,3.449,1.301.601,3.216.968,5.75,1.101v3.5h-27.6v-3.5c2.666-.133,4.666-.5,6-1.101,1.333-.6,2.232-1.699,2.7-3.3.466-1.6.7-3.933.7-7v-43.1c0-3.6-.051-6.616-.15-9.05-.1-2.433-.25-4.083-.45-4.95-.334-1.533-1.117-2.565-2.35-3.1-1.234-.533-3.45-.8-6.65-.8v-3.4l18.9-3.7Z"/>
    <path class="cls-4" d="M1240.65,738.452l14.399-6.3v-4.1c0-4.2-.85-7.283-2.55-9.25-1.7-1.966-4.384-2.95-8.05-2.95-2.135,0-3.685.435-4.65,1.3-.967.867-1.884,2.6-2.75,5.2-.734,1.867-1.449,3.135-2.149,3.8-.7.667-1.718,1-3.05,1-3.335,0-5-1.666-5-5,0-3.2,1.699-5.683,5.1-7.45,3.4-1.766,8.232-2.65,14.5-2.65,6.732,0,11.482,1.167,14.25,3.5,2.766,2.334,4.15,6.367,4.15,12.1v22.4c0,4.134.399,7.068,1.199,8.8.801,1.734,2.066,2.6,3.801,2.6.665,0,1.449-.149,2.35-.449.9-.301,1.583-.883,2.05-1.75l1.4,2.399c-.8,1.534-2.268,2.817-4.4,3.851-2.134,1.032-4.367,1.55-6.7,1.55-2.867,0-5.034-.935-6.5-2.8-1.467-1.866-2.199-4.5-2.199-7.9h-.5c-1.801,3.268-4.234,5.85-7.301,7.75s-6.467,2.85-10.199,2.85c-4.067,0-7.317-1.082-9.75-3.25-2.435-2.165-3.65-5.05-3.65-8.649,0-3.133,1.166-6.016,3.5-8.65,2.333-2.633,6.565-5.283,12.7-7.95ZM1255.049,744.352v-7.9c-7.667,2.867-13,5.685-16,8.45-3,2.767-4.5,5.584-4.5,8.45,0,2.268.733,4.1,2.2,5.5,1.466,1.4,3.333,2.1,5.601,2.1,2.399,0,4.565-.75,6.5-2.25,1.933-1.5,3.449-3.516,4.55-6.05,1.1-2.533,1.649-5.3,1.649-8.3Z"/>
    <path class="cls-4" d="M1321.849,683.052v37.1h.399c4.133-5.4,9.466-8.1,16-8.1,4.8,0,9.133,1.217,13,3.65,3.866,2.435,6.916,5.717,9.15,9.85,2.232,4.134,3.35,8.8,3.35,14s-1.134,9.884-3.399,14.05c-2.268,4.167-5.351,7.467-9.25,9.9-3.9,2.434-8.285,3.649-13.15,3.649-3.734,0-7.268-.7-10.6-2.1-3.335-1.4-6.067-3.3-8.2-5.7l-4.7,6.7h-2.2v-60.4c0-6.733-.435-11.033-1.3-12.9-.268-.666-.617-1.166-1.05-1.5-.435-.333-1.15-.633-2.15-.9-1-.266-2.567-.533-4.7-.8v-2.5l18.801-4ZM1322.048,736.252v8.9c0,3.334.633,6.3,1.9,8.9,1.266,2.6,3.016,4.634,5.25,6.1,2.232,1.468,4.783,2.2,7.65,2.2,3.133,0,5.865-.933,8.199-2.8,2.333-1.866,4.15-4.5,5.45-7.9,1.3-3.4,1.95-7.333,1.95-11.8,0-4.533-.685-8.533-2.05-12-1.367-3.465-3.25-6.183-5.65-8.15-2.399-1.965-5.167-2.95-8.3-2.95-2.667,0-5.084.65-7.25,1.95-2.167,1.3-3.817,3.117-4.95,5.45-1.467,2.934-2.2,6.967-2.2,12.1Z"/>
    <path class="cls-4" d="M1417.648,753.952l3.1,2.801c-5.667,6.867-12.7,10.3-21.1,10.3-5.2,0-9.768-1.133-13.7-3.4-3.935-2.266-7-5.415-9.2-9.45-2.2-4.033-3.3-8.715-3.3-14.05,0-5.466,1.165-10.316,3.5-14.55,2.333-4.232,5.55-7.55,9.649-9.95,4.101-2.4,8.851-3.6,14.25-3.6,6.4,0,11.383,1.75,14.95,5.25,3.565,3.5,5.351,8.517,5.351,15.05,0,.867-.185,1.417-.551,1.65-.367.234-1.217.35-2.55.35h-32.899c-.135.535-.234,1.185-.301,1.95-.066.767-.1,1.617-.1,2.55,0,4.6.732,8.635,2.2,12.1,1.466,3.468,3.532,6.15,6.2,8.051,2.665,1.899,5.766,2.85,9.3,2.85,2.732,0,5.333-.633,7.8-1.9,2.466-1.266,4.933-3.266,7.4-6ZM1385.847,729.752h18.4c2.732,0,4.416-.166,5.05-.5.633-.333.95-1.1.95-2.3,0-3.065-1-5.516-3-7.35-2-1.833-4.667-2.75-8-2.75-7.2,0-11.667,4.3-13.4,12.9Z"/>
    <path class="cls-4" d="M1446.747,683.052v67.4c0,3.335.2,5.851.6,7.551.4,1.699,1.25,2.85,2.55,3.449,1.301.601,3.216.968,5.75,1.101v3.5h-27.6v-3.5c2.666-.133,4.666-.5,6-1.101,1.333-.6,2.232-1.699,2.7-3.3.466-1.6.7-3.933.7-7v-43.1c0-3.6-.051-6.616-.15-9.05-.1-2.433-.25-4.083-.45-4.95-.334-1.533-1.117-2.565-2.35-3.1-1.234-.533-3.45-.8-6.65-.8v-3.4l18.9-3.7Z"/>
    <path class="cls-4" d="M1479.247,683.052v67.4c0,3.335.199,5.851.6,7.551.4,1.699,1.25,2.85,2.55,3.449,1.3.601,3.216.968,5.75,1.101v3.5h-27.6v-3.5c2.665-.133,4.665-.5,6-1.101,1.333-.6,2.232-1.699,2.7-3.3.465-1.6.699-3.933.699-7v-43.1c0-3.6-.05-6.616-.149-9.05-.101-2.433-.25-4.083-.45-4.95-.334-1.533-1.117-2.565-2.35-3.1-1.234-.533-3.45-.8-6.65-.8v-3.4l18.9-3.7Z"/>
    <path class="cls-4" d="M1511.346,738.452l14.4-6.3v-4.1c0-4.2-.851-7.283-2.551-9.25-1.699-1.966-4.384-2.95-8.05-2.95-2.134,0-3.685.435-4.649,1.3-.968.867-1.885,2.6-2.75,5.2-.734,1.867-1.45,3.135-2.15,3.8-.7.667-1.717,1-3.05,1-3.335,0-5-1.666-5-5,0-3.2,1.7-5.683,5.1-7.45,3.4-1.766,8.233-2.65,14.5-2.65,6.733,0,11.483,1.167,14.25,3.5,2.766,2.334,4.15,6.367,4.15,12.1v22.4c0,4.134.399,7.068,1.2,8.8.8,1.734,2.065,2.6,3.8,2.6.665,0,1.45-.149,2.35-.449.9-.301,1.583-.883,2.05-1.75l1.4,2.399c-.8,1.534-2.268,2.817-4.4,3.851-2.134,1.032-4.367,1.55-6.699,1.55-2.867,0-5.035-.935-6.5-2.8-1.468-1.866-2.2-4.5-2.2-7.9h-.5c-1.8,3.268-4.234,5.85-7.3,7.75-3.067,1.9-6.468,2.85-10.2,2.85-4.067,0-7.317-1.082-9.75-3.25-2.435-2.165-3.65-5.05-3.65-8.649,0-3.133,1.166-6.016,3.5-8.65,2.333-2.633,6.565-5.283,12.7-7.95ZM1525.747,744.352v-7.9c-7.668,2.867-13,5.685-16,8.45-3,2.767-4.5,5.584-4.5,8.45,0,2.268.732,4.1,2.199,5.5,1.466,1.4,3.333,2.1,5.601,2.1,2.399,0,4.565-.75,6.5-2.25,1.933-1.5,3.45-3.516,4.55-6.05,1.1-2.533,1.65-5.3,1.65-8.3Z"/>
    <path class="cls-4" d="M1595.945,737.352v12.7c0,3.667.15,6.368.45,8.1.3,1.734,1.033,2.851,2.2,3.351,1.166.5,3.016.85,5.55,1.05v3.5h-26.6v-3.5c2.6-.2,4.5-.55,5.7-1.05,1.199-.5,1.982-1.566,2.35-3.2.365-1.633.55-4.116.55-7.451v-12.8c0-3.8-.05-6.983-.149-9.55-.101-2.566-.285-4.283-.551-5.15-.334-1.732-1-2.833-2-3.3-1-.466-3.034-.7-6.1-.7v-3.5l16.3-3.8,1.3,10h.5c3-3.4,6.15-5.916,9.45-7.55,3.3-1.633,6.95-2.45,10.95-2.45,4.2,0,7.75.867,10.65,2.6,2.899,1.734,4.883,4.167,5.949,7.3h.4c2.466-3.133,5.482-5.565,9.05-7.3,3.565-1.733,7.315-2.6,11.25-2.6,3.133,0,5.983.517,8.55,1.55,2.566,1.035,4.516,2.45,5.851,4.25,1.2,1.535,2.05,3.55,2.55,6.05s.75,5.917.75,10.25v15.9c0,3.667.166,6.35.5,8.05.333,1.7,1.083,2.817,2.25,3.35,1.166.535,3.016.9,5.55,1.101v3.5h-26.6v-3.5c2.532-.133,4.399-.466,5.6-1,1.2-.533,1.983-1.616,2.351-3.25.365-1.633.55-4.116.55-7.451v-12.6c0-7.666-.867-13.033-2.601-16.1-1.734-3.066-4.767-4.6-9.1-4.6-2.867,0-5.6.817-8.2,2.45-2.6,1.634-4.634,3.817-6.1,6.55-.468.867-.817,1.734-1.05,2.6-.234.867-.4,1.917-.5,3.15-.101,1.234-.15,2.917-.15,5.05v12.7c0,3.667.166,6.35.5,8.05.333,1.7,1.083,2.817,2.25,3.35,1.166.535,3.05.9,5.65,1.101v3.5h-26.601v-3.5c2.533-.2,4.4-.55,5.601-1.05,1.199-.5,1.965-1.566,2.3-3.2.333-1.633.5-4.116.5-7.451v-12.6c0-5.2-.367-9.3-1.101-12.3-.734-3-1.934-5.15-3.6-6.45-1.667-1.3-3.935-1.95-6.8-1.95-2.935,0-5.734.817-8.4,2.45-2.667,1.634-4.667,3.817-6,6.55-.467.867-.817,1.734-1.05,2.6-.234.867-.4,1.917-.5,3.15-.1,1.234-.15,2.917-.15,5.05Z"/>
    <path class="cls-4" d="M1730.245,753.952l3.101,2.801c-5.667,6.867-12.7,10.3-21.101,10.3-5.199,0-9.767-1.133-13.699-3.4-3.935-2.266-7-5.415-9.2-9.45-2.2-4.033-3.3-8.715-3.3-14.05,0-5.466,1.165-10.316,3.5-14.55,2.332-4.232,5.55-7.55,9.649-9.95,4.101-2.4,8.851-3.6,14.25-3.6,6.4,0,11.383,1.75,14.95,5.25,3.565,3.5,5.35,8.517,5.35,15.05,0,.867-.184,1.417-.55,1.65-.367.234-1.217.35-2.55.35h-32.9c-.134.535-.234,1.185-.3,1.95-.067.767-.1,1.617-.1,2.55,0,4.6.732,8.635,2.2,12.1,1.465,3.468,3.532,6.15,6.199,8.051,2.666,1.899,5.766,2.85,9.301,2.85,2.732,0,5.332-.633,7.8-1.9,2.466-1.266,4.933-3.266,7.399-6ZM1698.445,729.752h18.4c2.732,0,4.415-.166,5.05-.5.633-.333.95-1.1.95-2.3,0-3.065-1-5.516-3-7.35-2-1.833-4.667-2.75-8-2.75-7.2,0-11.667,4.3-13.4,12.9Z"/>
    <path class="cls-4" d="M1749.044,762.552l-2,3.5h-2.199v-17.201h2.5c2.6,9.401,7.332,14.1,14.199,14.1,2.666,0,4.783-.649,6.351-1.949,1.565-1.301,2.35-3.283,2.35-5.95,0-1.333-.284-2.45-.85-3.351-.567-.9-1.685-1.933-3.351-3.1-1.667-1.166-4.134-2.75-7.399-4.75-3-1.933-5.5-3.666-7.5-5.2-2-1.533-3.5-3.166-4.5-4.9-1-1.733-1.5-3.833-1.5-6.3,0-3.065.665-5.75,2-8.05,1.333-2.3,3.115-4.1,5.35-5.4,2.233-1.3,4.75-1.95,7.55-1.95,1.801,0,3.666.284,5.601.85,1.933.567,3.633,1.317,5.1,2.25l2-2.1h1.9v14.4h-2.601c-1.467-4.065-3.066-6.965-4.8-8.7-1.734-1.733-3.867-2.6-6.399-2.6-2.268,0-4.085.6-5.45,1.8-1.367,1.2-2.05,2.867-2.05,5,0,2.2.782,4,2.35,5.4,1.565,1.4,4.05,3.167,7.45,5.3,3.865,2.4,6.966,4.484,9.3,6.25,2.333,1.767,4.033,3.567,5.1,5.4,1.066,1.834,1.601,4.017,1.601,6.55,0,4.667-1.55,8.367-4.65,11.1-3.1,2.734-7.117,4.101-12.05,4.101-5.2,0-9.667-1.5-13.4-4.5Z"/>
  </g>
  <g>
    <path class="cls-1" d="M1805.232,738.86l14.4-6.3v-4.1c0-4.2-.851-7.283-2.551-9.25-1.699-1.966-4.384-2.95-8.05-2.95-2.134,0-3.685.435-4.649,1.3-.968.867-1.885,2.6-2.75,5.2-.734,1.867-1.45,3.135-2.15,3.8-.7.667-1.717,1-3.05,1-3.335,0-5-1.666-5-5,0-3.2,1.7-5.683,5.1-7.45,3.4-1.766,8.233-2.65,14.5-2.65,6.733,0,11.483,1.167,14.25,3.5,2.766,2.334,4.15,6.367,4.15,12.1v22.4c0,4.134.399,7.068,1.2,8.8.8,1.734,2.065,2.6,3.8,2.6.665,0,1.45-.149,2.35-.449.9-.301,1.583-.883,2.05-1.75l1.4,2.399c-.8,1.534-2.268,2.817-4.4,3.851-2.134,1.032-4.367,1.55-6.699,1.55-2.867,0-5.035-.935-6.5-2.8-1.468-1.866-2.2-4.5-2.2-7.9h-.5c-1.8,3.268-4.234,5.85-7.3,7.75-3.067,1.9-6.468,2.85-10.2,2.85-4.067,0-7.317-1.082-9.75-3.25-2.435-2.165-3.65-5.05-3.65-8.649,0-3.133,1.166-6.016,3.5-8.65,2.333-2.633,6.565-5.283,12.7-7.95ZM1819.633,744.76v-7.9c-7.668,2.867-13,5.685-16,8.45-3,2.767-4.5,5.584-4.5,8.45,0,2.268.732,4.1,2.199,5.5,1.466,1.4,3.333,2.1,5.601,2.1,2.399,0,4.565-.75,6.5-2.25,1.933-1.5,3.45-3.516,4.55-6.05,1.1-2.533,1.65-5.3,1.65-8.3Z"/>
    <path class="cls-1" d="M1117.024,769.413c.061,7.797-3.316,14.338-8.403,14.815-5.51.515-11.955,1.961-15.191-5.107-2.164-4.728-2.03-9.747,1.707-13.191,3.365-3.1,7.129-7.117,12.91-4.135,3.485,1.797,7.774,2.3,8.977,7.617Z"/>
    <path class="cls-1" d="M1142.822,772.727c-3.45-3.006-4.863-6.13-1.537-9.32,2.031-1.95,5.288-2.863,7.097-.057,1.712,2.655,2.087,6.141-1.484,8.267-1.107.659-2.415.97-4.076,1.11Z"/>
    <path class="cls-2" d="M1821.096,736.86s4.063-3.502,11.347-4.807c25.113-4.499,29.657,5.657,22.953,23.703-20.662,55.615-329.649,94.111-561.78,38.788-76.075-18.131-137.994-15.712-155.345,14.858-4.352,7.667-4.964,18.268-4.964,18.268-.699,7.183-3.398,25.701,7.705,30.308,29.989,12.445,83.845-57.513,196.237-38.514,54.939,9.287,143.418,22.621,256.027,17.522,175.303-7.937,233.037-33.164,259.649-52.28s20.054-53.229-.45-56.691c-10.219-1.725-23.743,1.736-30.85,4.718-1.46.613-.528,4.127-.528,4.127Z"/>
  </g>
</svg>